# WaveFront *.obj file (generated by CINEMA 4D)

v -0.00678927451372 0.03684915602207 0.55610370635986
v -0.00678927451372 -0.01729528978467 0.55610370635986
v 0.8874979019165 -0.02707222104073 1.04448187351227
v 0.8874979019165 0.02707222104073 1.04448187351227
v 0.85305976867676 0.02744872123003 1.06413447856903
v 0.85305976867676 -0.02669572085142 1.06413447856903
v 0.88256591558456 -0.02701830118895 1.05865359306335
v 0.8677698969841 -0.02685654163361 1.06709718704224
v 0.88256591558456 0.02712614089251 1.05865359306335
v 0.8677698969841 0.02728790231049 1.06709718704224
v 0.84445023536682 -0.0266015958041 0.46372002363205
v 0.84445023536682 0.02754284627736 0.46372002363205
v 0.8874979019165 0.02707222104073 0.53915423154831
v 0.8874979019165 -0.02707222104073 0.53915423154831
v 0.86717826128006 -0.02685007452965 0.48304891586304
v 0.88241797685623 -0.02701668441296 0.50975412130356
v 0.86717826128006 0.02729436941445 0.48304891586304
v 0.88241797685623 0.02712775953114 0.50975412130356
v -0.85319739580154 -0.02669144421816 1.06390333175659
v -0.85319739580154 0.02745299972594 1.06390333175659
v -0.8874979019165 0.02707222104073 1.04448187351227
v -0.8874979019165 -0.02707222104073 1.04448187351227
v -0.86781573295593 -0.02685372531414 1.06693542003632
v -0.88257735967636 -0.02701759710908 1.05857717990875
v -0.86781573295593 0.02729071676731 1.06693542003632
v -0.88257735967636 0.02712684497237 1.05857717990875
v -0.79317146539688 0.02811935916543 0.43256336450577
v -0.79317146539688 -0.02602508477867 0.43256336450577
v -0.8874979019165 -0.02707222104073 0.59915417432785
v -0.8874979019165 0.02707222104073 0.59915417432785
v -0.84300822019577 0.02756611071527 0.47543331980705
v -0.87637549638748 0.02719569392502 0.53436356782913
v -0.84300822019577 -0.02657833136618 0.47543331980705
v -0.87637549638748 -0.02694875001907 0.53436356782913
v -0.04108979925513 0.03646837547421 -0.01864543929696
v -0.04108979925513 -0.01767606660724 -0.01864543929696
v -0.00678927451372 0.03684915602207 0.0007760777371
v 0.02764887176454 0.03647265583277 -0.01887658424675
v 0.02764887176454 -0.01767178997397 -0.01887658424675
v -0.00678927451372 -0.01729528978467 0.0007760777371
v -0.01896961219609 0.03662399947643 -0.02705575525761
v 0.00547262188047 0.03662551939487 -0.02713794633746
v 0.00547262188047 -0.01751892454922 -0.02713794633746
v -0.01896961219609 -0.01752044446766 -0.02705575525761
# 44 vertices

vn -0.50868344306946 0 0.86095362901688
vn 1 0 0
vn 0.50868344306946 0 -0.86095362901688
vn -1 0 0
vn 0.01093194447458 0.99994021654129 -0.00000000698043
vn 0.01093195937574 0.99994021654129 0.00000001983924
vn 0.01093187369406 0.99994021654129 0.00000005927832
vn -0.01093201246113 -0.99994021654129 0.00000000986685
vn -0.01093203481287 -0.99994021654129 0.00000003155785
vn -0.0109320115298 -0.99994021654129 0.00000001041823
vn -0.01110055856407 0.9999383687973 0.00000002344448
vn -0.0111005185172 0.9999383687973 0
vn 0 0 0
vn -0.51446205377579 0 -0.85751312971115
vn 0.00008426745626 -1 0.00000000103452
vn 0.0000842669906 -1 -0.0000000002724
vn 0.01110052131116 -0.9999383687973 -0.00000000045499
vn 0.01110053248703 -0.9999383687973 0.00000000381573
vn 0.51446205377579 0 0.85751312971115
vn -0.00008428026194 1 -0.00000000048992
vn 0.01093197986484 0.99994021654129 -0.00000004010981
vn 0.01093204505742 0.99994021654129 -0.00000002252079
vn -0.01093198917806 -0.99994021654129 0.00000000859905
vn -0.01093200035393 -0.99994021654129 -0.00000000097865
vn -0.01093199755996 -0.99994021654129 -0.00000000008977
vn 0.94444108009338 0 0.32868072390556
vn 0.49563997983932 0 0.86852806806564
vn -0.19744130969048 0 0.9803147315979
vn -0.00008429306763 1 -0.00000000122909
vn 0.01093200035393 0.99994021654129 0.00000000023939
vn 0.01093213446438 0.99994021654129 0.00000003517803
vn -0.01093197613955 -0.99994021654129 0.00000001894201
vn 0.64784437417984 0 -0.76177275180817
vn 0.76977509260178 0 -0.63831520080566
vn 0.94113183021545 0 -0.33803978562355
vn 0.98539865016937 0 -0.17026302218437
vn -0.011100564152 0.9999383687973 0.00000002369372
vn -0.01110054366291 0.9999383687973 0.00000001934204
vn -0.01110053621233 0.9999383687973 0.00000000281325
vn -0.01110050454736 0.9999383687973 0.00000001063869
vn 0.01110051758587 -0.9999383687973 0.00000000029306
vn 0.01110051758587 -0.9999383687973 0
vn 0.01110053248703 -0.9999383687973 0.00000000416276
vn 0.01110055390745 -0.9999383687973 0.00000000700617
vn 0.20309403538704 0 0.97915923595428
vn -0.49271440505981 0 0.87019109725952
vn -0.94412571191788 0 0.32958564162254
vn -0.0111005762592 0.9999383687973 -0.00000000269743
vn 0.01110052224249 -0.9999383687973 0.00000000274105
vn -0.65212970972061 0 -0.7581073641777
vn -0.77264004945755 0 -0.63484436273575
vn -0.9418813586235 0 -0.33594560623169
vn -0.98558312654495 0 -0.16919206082821
vn 0.34909501671791 0 -0.93708735704422
vn 0.17570438981056 0 -0.98444294929504
vn -0.00223447848111 0.99998384714127 -0.00523137673736
vn 0.0041995276697 0.99997216463089 -0.00616665696725
vn -0.00866839010268 0.99995321035385 -0.00429587578401
vn 0.0086682960391 -0.99995321035385 0.0042958506383
vn 0.00223441864364 -0.99998384714127 0.00523132504895
vn -0.00419955328107 -0.99997216463089 0.00616657920182
vn -0.18232107162476 0 -0.98323905467987
vn -0.35538926720619 0 -0.93471837043762
# 63 normals

vt 0.5 1 0
vt 0.98074549436569 1 0
vt 0.98074549436569 0 0
vt 0.5 0 0
vt 0.0671898946166 0 0
vt 0.0671898946166 1 0
vt 0.91601264476776 1 0
vt 0.91601264476776 0 0
vt 0.02406815253198 0 0
vt 0.02406815253198 1 0
vt 0.48074546456337 1 0
vt 0.48074546456337 0.95954352617264 0
vt 0.18477220833302 0 0
vt 0.18477220833302 1 0
vt 0.93281012773514 1 0
vt 0.93281012773514 0 0
vt 1 0 0
vt 1 1 0
vt 0 1 0
vt 0.51947325468063 1 0
vt 0.94644856452942 1 0
vt 0.94644856452942 0 0
vt 0.51947325468063 0.95638185739517 0
vt 0 0 0
vt 0.01947325468063 0 0
vt 0.01947325468063 1 0
vt 0.03837509453297 0 0
vt 0.03837509453297 1 0
vt 0.00956029444933 0 0
vt 0.00956029444933 1 0
vt -0.01925450563431 0 0
vt -0.01925450563431 1 0
vt -0.01195035036653 0 0
vt -0.01195035036653 1 0
vt -0.04796885326505 0 0
vt -0.04796885326505 1 0
vt -0.08398735523224 0 0
vt -0.08398735523224 1 0
vt -0.00941445399076 0 0
vt -0.00941445399076 1 0
vt -0.03830216452479 0 0
vt -0.03830216452479 1 0
vt -0.06718987226486 0 0
vt -0.06718987226486 1 0
vt 1.02588975429535 1 0
vt 1.02588975429535 0 0
vt 1.10533094406128 1 0
vt 1.10533094406128 0 0
vt 1.1847722530365 1 0
vt 1.1847722530365 0 0
vt 0.49365472793579 1 0
vt 0.49365472793579 0.95848965644836 0
vt 0.5 0.93281012773514 0
vt 0.32180121541023 0.0029444694519 0
vt 0.67738324403763 0 0
vt 0.5 0.06718993186951 0
vt 0.50656402111053 1 0
vt 0.50656402111053 0.95743572711945 0
# 58 texture coordinates

o 立方体.1
usemtl default
f 2/4/1 6/3/1 5/2/1 1/1/1
f 14/8/2 13/7/2 4/6/2 3/5/2
f 39/12/3 38/11/3 12/10/3 11/9/3
f 22/16/4 21/15/4 30/14/4 29/13/4
f 1/4/20 5/1/21 10/17/22 9/18/31 4/19/22 13/17/5 18/1/7 17/18/7 12/18/6 38/17/30 37/18/29
f 40/17/16 39/1/25 11/18/10 15/17/9 16/18/9 14/19/8 3/17/23 7/18/32 8/19/23 6/17/24 2/1/15
f 37/19/29 35/19/48 27/19/39 31/17/40 32/18/40 30/19/38 21/17/11 26/18/12 25/19/11 20/19/37 1/4/20
f 36/23/14 28/22/14 27/21/14 35/20/14
f 2/1/15 19/19/49 23/17/41 24/18/42 22/19/41 29/19/43 34/24/44 33/17/44 28/24/18 36/1/17 40/24/16
f 1/1/19 20/26/19 19/25/19 2/4/19
f 4/6/26 9/28/26 7/27/26 3/5/26
f 9/28/27 10/30/27 8/29/27 7/27/27
f 10/30/28 5/32/28 6/31/28 8/29/28
f 12/10/33 17/34/34 15/33/34 11/9/33
f 17/34/34 18/36/35 16/35/35 15/33/34
f 18/36/35 13/38/36 14/37/36 16/35/35
f 20/26/45 25/40/45 23/39/45 19/25/45
f 25/40/46 26/42/46 24/41/46 23/39/46
f 26/42/47 21/44/47 22/43/47 24/41/47
f 28/22/50 33/46/51 31/45/51 27/21/50
f 33/46/51 34/48/52 32/47/52 31/45/51
f 34/48/52 29/50/53 30/49/53 32/47/52
f 39/12/54 43/52/55 42/51/55 38/11/54
f 37/53/13 38/11/57 42/55/57 41/54/56 35/20/58
f 44/54/13 43/55/61 39/12/61 40/56/60 36/23/59
f 43/52/55 44/58/62 41/57/62 42/51/55
f 44/58/62 36/23/63 35/20/63 41/57/62

v 0 0.0385420806706 -0.22034411132336
v 0 -0.0385420806706 -0.22034411132336
v -0.05821910873055 0.0385420806706 -1.34898602962494
v -0.05821910873055 -0.0385420806706 -1.34898602962494
v 0 0.0385420806706 -1.31785154342651
v 0.05821910873055 0.0385420806706 -1.34898602962494
v 0.05821910873055 -0.0385420806706 -1.34898602962494
v 0 -0.0385420806706 -1.31785154342651
v -0.02097530849278 0.0385420806706 -1.36451399326324
v 0.02097530849278 0.0385420806706 -1.36451399326324
v 0.02097530849278 -0.0385420806706 -1.36451399326324
v -0.02097530849278 -0.0385420806706 -1.36451399326324
v 1.5226891040802 -0.0385420806706 -0.37134280800819
v 1.5226891040802 0.0385420806706 -0.37134280800819
v 1.56427419185638 0.0385420806706 -0.29358166456223
v 1.56427419185638 -0.0385420806706 -0.29358166456223
v 1.54476737976074 -0.0385420806706 -0.35074040293694
v 1.55939745903015 -0.0385420806706 -0.32338312268257
v 1.54476737976074 0.0385420806706 -0.35074040293694
v 1.55939745903015 0.0385420806706 -0.32338312268257
v -1.51510322093964 0.03754207864404 -0.37621280550957
v -1.54086601734161 0.03754207864404 -0.35217213630676
v -1.51510322093964 -0.03754207864404 -0.37621280550957
v -1.55746209621429 0.0385420806706 -0.31901815533638
v -1.54006242752075 0.0385420806706 -0.3515542447567
v -1.51138114929199 0.0385420806706 -0.37889170646667
v -1.51138114929199 -0.0385420806706 -0.37889170646667
v -1.54006242752075 -0.0385420806706 -0.3515542447567
v -1.55746209621429 -0.0385420806706 -0.31901815533638
v -1.56427419185638 -0.0385420806706 -0.27998554706573
v -1.56411266326904 0.03754207864404 -0.28456854820251
v -1.56411266326904 -0.03754207864404 -0.28456854820251
v -1.55842220783234 -0.03754207864404 -0.31934341788292
v -1.56427419185638 0.0385420806706 -0.27998554706573
v -1.55842220783234 0.03754207864404 -0.31934341788292
v -1.54086601734161 -0.03754207864404 -0.35217213630676
v -1.51436448097229 0.03808154165745 -0.37681072950363
v -1.51307880878448 0.03842694312334 -0.37773603200912
v -1.54076337814331 0.03803111985326 -0.35209321975708
v -1.5404554605484 0.03841434046626 -0.35185641050339
v -1.54076337814331 -0.03803111985326 -0.35209321975708
v -1.5404554605484 -0.03841434046626 -0.35185641050339
v -1.51436448097229 -0.03808154165745 -0.37681072950363
v -1.51307880878448 -0.03842694312334 -0.37773603200912
v -1.56425559520721 0.03842694312334 -0.2820391356945
v -1.5641998052597 0.03808154165745 -0.28362211585045
v -1.55793166160584 0.03841434046626 -0.31917724013329
v -1.55829954147339 0.03803111985326 -0.31930187344551
v -1.55793166160584 -0.03841434046626 -0.31917724013329
v -1.55829954147339 -0.03803111985326 -0.31930187344551
v -1.56425559520721 -0.03842694312334 -0.2820391356945
v -1.5641998052597 -0.03808154165745 -0.28362211585045
v -1.49773812294006 -0.0385420806706 0.77950799465179
v -1.49773812294006 0.0385420806706 0.77950799465179
v -1.56427419185638 0.0385420806706 0.74392580986023
v -1.56427419185638 -0.0385420806706 0.74392580986023
v -1.52562594413757 -0.0385420806706 0.78650796413422
v -1.554612159729 -0.0385420806706 0.77100676298141
v -1.52562594413757 0.0385420806706 0.78650796413422
v -1.554612159729 0.0385420806706 0.77100676298141
v 1.56427419185638 -0.0385420806706 0.74392580986023
v 1.56427419185638 0.0385420806706 0.74392580986023
v 1.49773812294006 0.0385420806706 0.77950799465179
v 1.49773812294006 -0.0385420806706 0.77950799465179
v 1.554612159729 -0.0385420806706 0.77100676298141
v 1.52562594413757 -0.0385420806706 0.78650796413422
v 1.554612159729 0.0385420806706 0.77100676298141
v 1.52562594413757 0.0385420806706 0.78650796413422
# 68 vertices

vn -0.55522292852402 0 0.83170157670975
vn 0.55522298812866 0 -0.8317015171051
vn 0 1 0
vn 0 -1 0
vn -0.55522298812866 0 -0.8317015171051
vn 0.55522292852402 0 0.83170157670975
vn 0.38482052087784 0 -0.92299145460129
vn 0.19622509181499 0 -0.9805588722229
vn -0.19622509181499 0 -0.9805588722229
vn -0.38482052087784 0 -0.92299145460129
vn 0.68224769830704 0 -0.73112112283707
vn 0.79272937774658 0 -0.60957372188568
vn 0.94712501764297 0 -0.32086473703384
vn 0.98687386512756 0 -0.16149277985096
vn -0.68224835395813 0 -0.73112046718597
vn -0.79272890090942 0 -0.60957431793213
vn -0.94712519645691 0 -0.32086417078972
vn -0.98687446117401 0 -0.16148920357227
vn -0.98746967315674 0.09464348852634 -0.12627869844437
vn -0.97206276655197 0.20817930996418 -0.10842227935791
vn -0.97164368629456 -0.21012997627258 -0.10841576009989
vn -0.98740065097809 -0.09542494267225 -0.12623021006584
vn -0.92339599132538 0.22349527478218 -0.31207317113876
vn -0.8419703245163 0.45991262793541 -0.28207516670227
vn -0.77209836244583 0.22425386309624 -0.59462112188339
vn -0.7014821767807 0.46180745959282 -0.54282283782959
vn -0.65321165323257 0.09540818631649 -0.75114035606384
vn -0.62963861227036 0.21014115214348 -0.74792778491974
vn -0.65329021215439 -0.094627417624 -0.75117081403732
vn -0.62987661361694 -0.20819169282913 -0.74827247858047
vn -0.77224510908127 -0.22347946465015 -0.59472209215164
vn -0.70207953453064 -0.45992562174797 -0.54364758729935
vn -0.9232302904129 -0.22427079081535 -0.31200715899467
vn -0.8409520983696 -0.46179556846619 -0.28203618526459
vn -0.88821321725845 0.45478561520576 -0.06517135351896
vn -0.88706386089325 -0.45703691244125 -0.06507619470358
vn -0.99995899200439 0 -0.00905531272292
vn -0.50086224079132 0.84949374198914 -0.16582331061363
vn -0.25551247596741 0.96310490369797 -0.0845122858882
vn -0.28760072588921 0.9564620256424 -0.04966090247035
vn -0.41467249393463 0.85075414180756 -0.32289955019951
vn -0.21123567223549 0.96349251270294 -0.16450424492359
vn -0.5466274023056 0.45705777406693 -0.70163857936859
vn -0.19916582107544 0.95731556415558 -0.20947530865669
vn -0.5473445057869 -0.4548074901104 -0.70254123210907
vn -0.56273150444031 0 -0.82663977146149
vn -0.41599330306053 -0.8495044708252 -0.32448682188988
vn -0.21215708553791 -0.96310418844223 -0.16558891534805
vn -0.20098905265331 -0.95646053552628 -0.21162851154804
vn -0.49880808591843 -0.85074388980865 -0.16560609638691
vn -0.25409859418869 -0.96349328756332 -0.08434820920229
vn -0.28479704260826 -0.95731717348099 -0.04934000968933
vn 0.24345251917839 0 0.96991282701492
vn -0.47158002853394 0 0.88182330131531
vn -0.94184911251068 0 0.33603605628014
vn 0.94184911251068 0 0.33603605628014
vn 0.47158002853394 0 0.88182330131531
vn -0.243453130126 0 0.96991264820099
# 58 normals

vt 0.97873258590698 1 0
vt 0.97873258590698 0 0
vt 0.06852204352617 0 0
vt 0.06852204352617 1 0
vt 0.95717370510101 1 0
vt 0.95717370510101 0 0
vt 0.01329213194549 0 0
vt 0.01329213194549 1 0
vt 0.48139101266861 1 0
vt 0.48139101266861 0 0
vt 0.05447171255946 0 0
vt 0.05447171255946 1 0
vt 0.93147796392441 1 0
vt 0.93147796392441 0 0
vt 0.51860898733139 1 0
vt 0.98309344053268 1 0
vt 0.98309344053268 0 0
vt 0.51860898733139 0 0
vt 0.02126741036773 0 0
vt 0.02126741036773 1 0
vt 0.99942767620087 0.99928462505341 0
vt 0.99950361251831 0.00086867809296 0
vt 0.49379700422287 1 0
vt 0.49379700422287 0 0
vt 0.5 0.94004321098328 0
vt 0.31985890865326 0 0
vt 0.68014109134674 0 0
vt 0.5 0.05995678901672 0
vt 0.50620299577713 1 0
vt 0.50620299577713 0 0
vt -0.00541401049122 0 0
vt -0.00541401049122 1 0
vt -0.02412015199661 0 0
vt -0.02412015199661 1 0
vt -0.04282629489899 0 0
vt -0.04282629489899 1 0
vt 0.98440003395081 0.98438048362732 0
vt 1.00649678707123 0.98702716827393 0
vt 1.00649678707123 0.01297283172607 0
vt 0.98440003395081 0.01561951637268 0
vt 1.02894413471222 0.98702716827393 0
vt 1.02894413471222 0.01297283172607 0
vt 1.05104088783264 0.98438048362732 0
vt 1.05104088783264 0.01561951637268 0
vt 1.0521844625473 0.98958694934845 0
vt 1.0521844625473 0.01041305065155 0
vt 1.0291348695755 0.99158990383148 0
vt 0.88449108600616 1.32292032241821 0
vt 1.00678634643555 0.99151688814163 0
vt 1.02870571613312 0.99154222011566 0
vt 1.31761646270752 0.98958694934845 0
vt 1.00620722770691 0.99118596315384 0
vt 0.98396450281143 0.01041305065155 0
vt 0.98396450281143 0.98958694934845 0
vt 1.00620079040527 0.00868558883667 0
vt 0.9842831492424 0.01041305065155 0
vt 0.86246824264526 0.00893473625183 0
vt 0.83999556303024 0.00889682769775 0
vt 0.67847973108292 0.01041305065155 0
vt 1.0292854309082 0.00860595703125 0
vt 1.05332803726196 0.99479347467422 0
vt 1.05332803726196 0.00520658493042 0
vt 1.05447161197662 1 0
vt 1.05447161197662 0 0
vt 1.02932572364807 0.99615263938904 0
vt 0.71794128417969 1.66146016120911 0
vt 1.02951645851135 1.00071537494659 0
vt 0.55139148235321 2 0
vt 1.00707590579987 0.99600666761398 0
vt 1.02846717834473 0.9960572719574 0
vt 1.00736546516418 1.00049638748169 0
vt 1.02822875976562 1.00057232379913 0
vt 1.65083301067352 0.99479347467422 0
vt 1.00591766834259 0.9953448176384 0
vt 1.98404943943024 1 0
vt 1.00562810897827 0.99950361251831 0
vt 0.98352897167206 0.00520658493042 0
vt 0.98352897167206 0.99479347467422 0
vt 1.00590479373932 0.00439834594727 0
vt 0.98416632413864 0.00520658493042 0
vt 1.00560879707336 0.00011098384857 0
vt 0.98404943943024 0 0
vt 0.69599235057831 0.00489664077759 0
vt 0.6734943985939 0.00482070446014 0
vt 0.52951645851135 0.00085842609406 0
vt 0.50699317455292 0.00074458122253 0
vt 0.30591863393784 0.00520658493042 0
vt 1.0296266078949 0.00423896312714 0
vt -0.06664250791073 0 0
vt 1.02996790409088 -0.0001277923584 0
vt 0.49950361251831 0.99925541877747 0
vt 0.49942770600319 0.99914157390594 0
vt -0.00866240542382 0 0
vt -0.00866240542382 1 0
vt -0.03859221935272 0 0
vt -0.03859221935272 1 0
vt -0.06852203607559 0 0
vt -0.06852203607559 1 0
vt 0.03859222307801 0 0
vt 0.03859222307801 1 0
vt 0.00866240542382 0 0
vt 0.00866240542382 1 0
vt -0.02126741409302 0 0
vt -0.02126741409302 1 0
# 104 texture coordinates

o 立方体
usemtl default
f 46/4/64 108/60/64 107/59/64 45/1/64
f 60/64/2 59/63/2 106/62/2 105/61/2
f 51/68/65 50/67/65 58/66/65 57/65/65
f 100/72/4 99/71/4 78/70/4 74/69/4
f 45/4/66 107/17/66 112/24/66 111/18/66 106/19/66 59/17/66 64/4/66 63/18/66 58/18/66 50/18/66 49/1/66
f 52/17/67 51/18/67 57/18/67 61/17/67 62/18/67 60/1/67 105/1/67 109/18/67 110/1/67 108/17/67 46/1/67
f 49/17/66 47/18/66 70/18/66 69/80/66 68/79/66 78/4/66 99/17/66 104/18/66 103/19/66 98/18/66 45/4/66
f 48/76/68 71/75/68 70/74/68 47/73/68
f 46/1/67 97/24/67 101/18/67 102/19/67 100/24/67 74/24/67 73/150/67 72/149/67 71/24/67 48/24/67 52/19/67
f 45/1/69 98/78/69 97/77/69 46/4/69
f 51/68/70 55/82/71 54/81/71 50/67/70
f 49/83/13 50/67/66 54/85/66 53/84/66 47/73/66
f 56/84/67 55/85/67 51/68/67 52/86/67 48/76/67
f 55/82/71 56/88/72 53/87/72 54/81/71
f 56/88/72 48/76/73 47/73/73 53/87/72
f 58/66/74 63/90/75 61/89/75 57/65/74
f 63/90/75 64/92/76 62/91/76 61/89/75
f 64/92/76 59/94/77 60/93/77 62/91/76
f 67/98/78 80/97/79 66/96/79 65/95/78
f 80/97/79 77/100/80 79/99/80 66/96/79
f 77/100/80 76/102/81 75/101/81 79/99/80
f 76/102/85 96/104/84 90/103/83 75/101/82
f 75/101/82 90/106/83 92/105/87 79/99/86
f 79/99/86 92/108/87 83/107/89 66/96/88
f 66/96/88 83/110/89 81/109/91 65/95/90
f 65/95/90 81/112/91 87/111/93 67/98/92
f 67/98/92 87/114/93 85/113/95 80/97/94
f 80/97/94 85/116/95 94/115/97 77/100/96
f 77/100/96 94/118/97 96/117/84 76/102/85
f 96/104/84 95/120/99 89/119/98 90/103/83
f 95/120/99 74/122/100 78/121/100 89/119/98
f 90/106/83 89/124/98 91/123/101 92/105/87
f 89/124/98 78/126/103 68/125/102 91/123/101
f 92/108/87 91/128/101 84/127/104 83/107/89
f 91/128/101 68/130/102 69/129/105 84/127/104
f 83/110/89 84/132/104 82/131/106 81/109/91
f 84/132/104 69/134/105 70/133/107 82/131/106
f 81/112/91 82/136/106 88/135/108 87/111/93
f 82/136/106 70/74/109 71/75/109 88/135/108
f 87/114/93 88/138/108 86/137/110 85/113/95
f 88/138/108 71/140/112 72/139/111 86/137/110
f 85/116/95 86/142/110 93/141/113 94/115/97
f 86/142/110 72/144/111 73/143/114 93/141/113
f 94/118/97 93/146/113 95/145/99 96/117/84
f 93/146/113 73/148/114 74/147/115 95/145/99
f 98/78/116 103/152/116 101/151/116 97/77/116
f 103/152/117 104/154/117 102/153/117 101/151/117
f 104/154/118 99/156/118 100/155/118 102/153/118
f 106/62/119 111/158/119 109/157/119 105/61/119
f 111/158/120 112/160/120 110/159/120 109/157/120
f 112/160/121 107/162/121 108/161/121 110/159/121

